<svg width="15" height="17" viewBox="0 0 15 17" fill="none" xmlns="http://www.w3.org/2000/svg">
<path fill-rule="evenodd" clip-rule="evenodd" d="M4.03846 0C4.35708 0 4.61538 0.29274 4.61538 0.653846V1.30769H10.3846V0.653846C10.3846 0.29274 10.643 0 10.9615 0C11.2801 0 11.5385 0.29274 11.5385 0.653846V1.30769H13.2692C14.2251 1.30769 15 2.1859 15 3.26923V15.0385C15 16.1218 14.2251 17 13.2692 17H1.73077C0.774888 17 0 16.1218 0 15.0385V3.26923C0 2.1859 0.774888 1.30769 1.73077 1.30769H3.46154V0.653846C3.46154 0.29274 3.71984 0 4.03846 0ZM10.3846 2.61538V3.26923C10.3846 3.63034 10.643 3.92308 10.9615 3.92308C11.2801 3.92308 11.5385 3.63034 11.5385 3.26923V2.61538H13.2692C13.5878 2.61538 13.8462 2.90812 13.8462 3.26923V5.23077H1.15385V3.26923C1.15385 2.90812 1.41215 2.61538 1.73077 2.61538H3.46154V3.26923C3.46154 3.63034 3.71984 3.92308 4.03846 3.92308C4.35708 3.92308 4.61538 3.63034 4.61538 3.26923V2.61538H10.3846ZM1.15385 6.53846V15.0385C1.15385 15.3995 1.41215 15.6923 1.73077 15.6923H13.2692C13.5878 15.6923 13.8462 15.3995 13.8462 15.0385V6.53846H1.15385ZM6.92308 8.5C6.92308 8.13889 7.18138 7.84615 7.5 7.84615C7.81862 7.84615 8.07692 8.13889 8.07692 8.5C8.07692 8.86111 7.81862 9.15385 7.5 9.15385C7.18138 9.15385 6.92308 8.86111 6.92308 8.5ZM9.80769 7.84615C9.48907 7.84615 9.23077 8.13889 9.23077 8.5C9.23077 8.86111 9.48907 9.15385 9.80769 9.15385C10.1263 9.15385 10.3846 8.86111 10.3846 8.5C10.3846 8.13889 10.1263 7.84615 9.80769 7.84615ZM11.5385 8.5C11.5385 8.13889 11.7968 7.84615 12.1154 7.84615C12.434 7.84615 12.6923 8.13889 12.6923 8.5C12.6923 8.86111 12.434 9.15385 12.1154 9.15385C11.7968 9.15385 11.5385 8.86111 11.5385 8.5ZM12.1154 10.4615C11.7968 10.4615 11.5385 10.7543 11.5385 11.1154C11.5385 11.4765 11.7968 11.7692 12.1154 11.7692C12.434 11.7692 12.6923 11.4765 12.6923 11.1154C12.6923 10.7543 12.434 10.4615 12.1154 10.4615ZM9.23077 11.1154C9.23077 10.7543 9.48907 10.4615 9.80769 10.4615C10.1263 10.4615 10.3846 10.7543 10.3846 11.1154C10.3846 11.4765 10.1263 11.7692 9.80769 11.7692C9.48907 11.7692 9.23077 11.4765 9.23077 11.1154ZM7.5 10.4615C7.18138 10.4615 6.92308 10.7543 6.92308 11.1154C6.92308 11.4765 7.18138 11.7692 7.5 11.7692C7.81862 11.7692 8.07692 11.4765 8.07692 11.1154C8.07692 10.7543 7.81862 10.4615 7.5 10.4615ZM4.61538 11.1154C4.61538 10.7543 4.87368 10.4615 5.19231 10.4615C5.51093 10.4615 5.76923 10.7543 5.76923 11.1154C5.76923 11.4765 5.51093 11.7692 5.19231 11.7692C4.87368 11.7692 4.61538 11.4765 4.61538 11.1154ZM2.88462 10.4615C2.56599 10.4615 2.30769 10.7543 2.30769 11.1154C2.30769 11.4765 2.56599 11.7692 2.88462 11.7692C3.20324 11.7692 3.46154 11.4765 3.46154 11.1154C3.46154 10.7543 3.20324 10.4615 2.88462 10.4615ZM2.30769 13.7308C2.30769 13.3697 2.56599 13.0769 2.88462 13.0769C3.20324 13.0769 3.46154 13.3697 3.46154 13.7308C3.46154 14.0918 3.20324 14.3846 2.88462 14.3846C2.56599 14.3846 2.30769 14.0918 2.30769 13.7308ZM5.19231 13.0769C4.87368 13.0769 4.61538 13.3697 4.61538 13.7308C4.61538 14.0918 4.87368 14.3846 5.19231 14.3846C5.51093 14.3846 5.76923 14.0918 5.76923 13.7308C5.76923 13.3697 5.51093 13.0769 5.19231 13.0769ZM6.92308 13.7308C6.92308 13.3697 7.18138 13.0769 7.5 13.0769C7.81862 13.0769 8.07692 13.3697 8.07692 13.7308C8.07692 14.0918 7.81862 14.3846 7.5 14.3846C7.18138 14.3846 6.92308 14.0918 6.92308 13.7308ZM9.80769 13.0769C9.48907 13.0769 9.23077 13.3697 9.23077 13.7308C9.23077 14.0918 9.48907 14.3846 9.80769 14.3846C10.1263 14.3846 10.3846 14.0918 10.3846 13.7308C10.3846 13.3697 10.1263 13.0769 9.80769 13.0769Z" fill="black"/>
</svg>
