<svg width="17" height="18" viewBox="0 0 17 18" fill="none" xmlns="http://www.w3.org/2000/svg">
<path fill-rule="evenodd" clip-rule="evenodd" d="M8.49997 1.22727C4.44572 1.22727 1.15908 4.70725 1.15908 9.00001C1.15908 13.2927 4.44572 16.7727 8.49997 16.7727C12.5543 16.7727 15.8409 13.2927 15.8409 9.00001C15.8409 4.70725 12.5543 1.22727 8.49997 1.22727ZM0 9.00001C0 4.02944 3.80556 0 8.49997 0C13.1943 0 17 4.02944 17 9.00001C17 13.9706 13.1943 18 8.49997 18C3.80556 18 0 13.9706 0 9.00001Z" fill="black"/>
<path fill-rule="evenodd" clip-rule="evenodd" d="M16.2273 9.5454H0.772827V8.45449H16.2273V9.5454Z" fill="black"/>
<path fill-rule="evenodd" clip-rule="evenodd" d="M7.98464 17.1818V0.818135H9.01494V17.1818H7.98464ZM12.2025 8.99994C12.2025 6.03711 11.1963 3.10602 9.22347 1.16799L9.83663 0.468239C12.0282 2.62111 13.1041 5.82641 13.1041 8.99994C13.1041 12.1735 12.0282 15.3788 9.83663 17.5317L9.22347 16.8319C11.1963 14.8939 12.2025 11.9628 12.2025 8.99994ZM3.99194 8.99997C3.99194 5.83102 5.03277 2.62738 7.15753 0.473393L7.78098 1.16288C5.87032 3.09982 4.89346 6.03254 4.89346 8.99997C4.89347 11.9674 5.87035 14.9002 7.781 16.8371L7.15754 17.5265C5.03279 15.3725 3.99196 12.1689 3.99194 8.99997Z" fill="black"/>
<path fill-rule="evenodd" clip-rule="evenodd" d="M8.49999 4.17001C11.2938 4.17001 14.1349 4.71702 16.0606 5.8561C16.278 5.98465 16.3558 6.27541 16.2344 6.50554C16.1131 6.73565 15.8384 6.818 15.6211 6.68945C13.8826 5.6612 11.2149 5.12455 8.49999 5.12455C5.78509 5.12455 3.11739 5.6612 1.37891 6.68945C1.16157 6.818 0.88697 6.73565 0.765562 6.50554C0.644167 6.27541 0.721929 5.98465 0.939271 5.8561C2.86515 4.71702 5.70616 4.17001 8.49999 4.17001ZM8.49999 13.5682C11.2938 13.5682 14.1349 13.0211 16.0606 11.8821C16.278 11.7535 16.3558 11.4627 16.2344 11.2326C16.1131 11.0025 15.8384 10.9202 15.6211 11.0487C13.8826 12.077 11.2149 12.6136 8.49999 12.6136C5.78509 12.6136 3.11739 12.077 1.37891 11.0487C1.16157 10.9202 0.88697 11.0025 0.765562 11.2326C0.644167 11.4627 0.721929 11.7535 0.939271 11.8821C2.86515 13.0211 5.70616 13.5682 8.49999 13.5682Z" fill="black"/>
</svg>
