<svg width="91" height="93" viewBox="0 0 91 93" fill="none" xmlns="http://www.w3.org/2000/svg">
<path d="M67.9622 92.7769H22.7388C10.6562 92.7769 2.97512 85.5705 2.28469 73.5311L0.0407818 37.9307C-0.304435 32.5367 1.5511 27.3584 5.26218 23.4316C8.93011 19.5047 14.1084 17.2608 19.4592 17.2608C20.8401 17.2608 22.1778 16.4409 22.8251 15.1464L25.932 8.97563C28.478 3.92684 34.8644 0 40.4312 0H50.313C55.8796 0 62.2229 3.92684 64.7689 8.93248L67.8759 15.2327C68.5231 16.4409 69.8177 17.2608 71.2417 17.2608C76.5926 17.2608 81.7708 19.5047 85.4387 23.4316C89.1498 27.4016 91.0054 32.5367 90.6601 37.9307L88.4162 73.5742C87.6395 85.7863 80.1742 92.7769 67.9622 92.7769ZM40.4312 6.47281C37.2379 6.47281 33.1816 8.97563 31.7144 11.8668L28.6074 18.0807C26.7951 21.576 23.2997 23.7336 19.4592 23.7336C15.8344 23.7336 12.4685 25.2008 9.96575 27.8331C7.50609 30.4654 6.25468 33.9175 6.51359 37.4991L8.7575 73.1427C9.27528 81.8595 13.9789 86.3041 22.7388 86.3041H67.9622C76.6789 86.3041 81.3824 81.8595 81.9434 73.1427L84.1873 37.4991C84.4031 33.9175 83.1948 30.4654 80.7352 27.8331C78.2323 25.2008 74.8665 23.7336 71.2417 23.7336C67.4012 23.7336 63.9059 21.576 62.0935 18.167L58.9434 11.8668C57.5194 9.01878 53.4631 6.51596 50.2698 6.51596H40.4312V6.47281Z" fill="#D9D9D9"/>
<path d="M51.8245 32.364H38.8789C37.1096 32.364 35.6425 30.8969 35.6425 29.1276C35.6425 27.3584 37.1096 25.8912 38.8789 25.8912H51.8245C53.5937 25.8912 55.0609 27.3584 55.0609 29.1276C55.0609 30.8969 53.5937 32.364 51.8245 32.364Z" fill="#D9D9D9"/>
<path d="M45.3517 75.5161C35.8151 75.5161 28.0909 67.7919 28.0909 58.2553C28.0909 48.7187 35.8151 40.9944 45.3517 40.9944C54.8883 40.9944 62.6125 48.7187 62.6125 58.2553C62.6125 67.7919 54.8883 75.5161 45.3517 75.5161ZM45.3517 47.4673C39.3967 47.4673 34.5637 52.3003 34.5637 58.2553C34.5637 64.2103 39.3967 69.0433 45.3517 69.0433C51.3067 69.0433 56.1397 64.2103 56.1397 58.2553C56.1397 52.3003 51.3067 47.4673 45.3517 47.4673Z" fill="#D9D9D9"/>
</svg>
