<svg width="21" height="21" viewBox="0 0 21 21" fill="none" xmlns="http://www.w3.org/2000/svg">
<path d="M0 0H21V21H0V0ZM19.6596 1.39755H1.34044V19.6025H19.6596V1.39755ZM15.8706 16.7422H14.5302V10.9472C14.5331 10.9023 14.5347 10.8499 14.5347 10.797C14.5347 9.45921 13.4944 8.37465 12.2112 8.37465C10.9281 8.37465 9.88786 9.45921 9.88786 10.797C9.88786 10.8499 9.88947 10.9023 9.89268 10.9543L9.89234 10.9472V16.7422H8.55191V10.9472C8.54906 10.8909 8.54744 10.8249 8.54744 10.7586C8.54744 8.64896 10.1878 6.93874 12.2113 6.93874C14.2347 6.93874 15.8751 8.64892 15.8751 10.7586C15.8751 10.8249 15.8735 10.8909 15.8703 10.9564L15.8706 10.9472L15.8706 16.7422ZM6.46979 16.7422H5.12936V6.93166H6.46979V16.7422ZM6.65745 5.15216C6.65745 5.64613 6.27337 6.04656 5.79958 6.04656C5.32578 6.04656 4.94171 5.64613 4.94171 5.15216C4.94171 4.65819 5.32578 4.25775 5.79958 4.25775C6.27337 4.25775 6.65745 4.65819 6.65745 5.15216ZM9.89234 11.3944H8.55191V6.93168H9.89234V11.3944Z" fill="black"/>
</svg>
